<?xml version="1.0" encoding="UTF-8" standalone="no"?>
<!DOCTYPE svg PUBLIC "-//W3C//DTD SVG 1.1//EN"
 "http://www.w3.org/Graphics/SVG/1.1/DTD/svg11.dtd">
<!-- Generated by graphviz version 2.47.0 (20210316.0004)
 -->
<!-- Title: dependencies Pages: 1 -->
<svg width="780pt" height="211pt"
 viewBox="0.00 0.00 780.00 211.00" xmlns="http://www.w3.org/2000/svg" xmlns:xlink="http://www.w3.org/1999/xlink">
<g id="graph0" class="graph" transform="scale(1 1) rotate(0) translate(4 207)">
<title>dependencies</title>
<polygon fill="white" stroke="transparent" points="-4,4 -4,-207 776,-207 776,4 -4,4"/>
<text text-anchor="start" x="365.01" y="-42.4" font-family="Times-12" font-weight="bold" font-size="14.00">Legend</text>
<polygon fill="#ffffb3" stroke="transparent" points="152,-10 152,-30 172,-30 172,-10 152,-10"/>
<text text-anchor="start" x="175.63" y="-15.4" font-family="Times-12" font-size="14.00"> &#160;Declarations</text>
<polygon fill="#8dd3c7" stroke="transparent" points="265,-10 265,-30 285,-30 285,-10 265,-10"/>
<text text-anchor="start" x="288.73" y="-15.4" font-family="Times-12" font-size="14.00"> &#160;Module</text>
<polygon fill="#80b1d3" stroke="transparent" points="351,-10 351,-30 371,-30 371,-10 351,-10"/>
<text text-anchor="start" x="374.78" y="-15.4" font-family="Times-12" font-size="14.00"> &#160;Bootstrap</text>
<polygon fill="#fdb462" stroke="transparent" points="448,-10 448,-30 468,-30 468,-10 448,-10"/>
<text text-anchor="start" x="471.67" y="-15.4" font-family="Times-12" font-size="14.00"> &#160;Providers</text>
<polygon fill="#fb8072" stroke="transparent" points="544,-10 544,-30 564,-30 564,-10 544,-10"/>
<text text-anchor="start" x="567.73" y="-15.4" font-family="Times-12" font-size="14.00"> &#160;Exports</text>
<g id="clust1" class="cluster">
<title>cluster_ChannelModule</title>
<polygon fill="none" stroke="black" stroke-dasharray="1,5" points="8,-70 8,-195 764,-195 764,-70 8,-70"/>
</g>
<g id="clust6" class="cluster">
<title>cluster_ChannelModule_providers</title>
<polygon fill="none" stroke="black" points="254,-78 254,-130 756,-130 756,-78 254,-78"/>
</g>
<g id="clust3" class="cluster">
<title>cluster_ChannelModule_imports</title>
<polygon fill="none" stroke="black" points="16,-78 16,-130 246,-130 246,-78 16,-78"/>
</g>
<!-- AuthModule -->
<g id="node1" class="node">
<title>AuthModule</title>
<polygon fill="#8dd3c7" stroke="black" points="237.55,-122 234.55,-126 213.55,-126 210.55,-122 150.45,-122 150.45,-86 237.55,-86 237.55,-122"/>
<text text-anchor="middle" x="194" y="-99.8" font-family="Times,serif" font-size="14.00">AuthModule</text>
</g>
<!-- ChannelModule -->
<g id="node3" class="node">
<title>ChannelModule</title>
<polygon fill="#8dd3c7" stroke="black" points="389.21,-187 386.21,-191 365.21,-191 362.21,-187 282.79,-187 282.79,-151 389.21,-151 389.21,-187"/>
<text text-anchor="middle" x="336" y="-164.8" font-family="Times,serif" font-size="14.00">ChannelModule</text>
</g>
<!-- AuthModule&#45;&gt;ChannelModule -->
<g id="edge1" class="edge">
<title>AuthModule&#45;&gt;ChannelModule</title>
<path fill="none" stroke="black" d="M194,-122.02C194,-139.37 194,-163 194,-163 194,-163 272.72,-163 272.72,-163"/>
<polygon fill="black" stroke="black" points="272.72,-166.5 282.72,-163 272.72,-159.5 272.72,-166.5"/>
</g>
<!-- MessageModule -->
<g id="node2" class="node">
<title>MessageModule</title>
<polygon fill="#8dd3c7" stroke="black" points="132.03,-122 129.03,-126 108.03,-126 105.03,-122 23.97,-122 23.97,-86 132.03,-86 132.03,-122"/>
<text text-anchor="middle" x="78" y="-99.8" font-family="Times,serif" font-size="14.00">MessageModule</text>
</g>
<!-- MessageModule&#45;&gt;ChannelModule -->
<g id="edge2" class="edge">
<title>MessageModule&#45;&gt;ChannelModule</title>
<path fill="none" stroke="black" d="M78,-122.28C78,-143.32 78,-175 78,-175 78,-175 272.86,-175 272.86,-175"/>
<polygon fill="black" stroke="black" points="272.86,-178.5 282.86,-175 272.86,-171.5 272.86,-178.5"/>
</g>
<!-- ChannelService -->
<g id="node4" class="node">
<title>ChannelService</title>
<ellipse fill="#fdb462" stroke="black" cx="676" cy="-104" rx="72.35" ry="18"/>
<text text-anchor="middle" x="676" y="-99.8" font-family="Times,serif" font-size="14.00">ChannelService</text>
</g>
<!-- ChannelService&#45;&gt;ChannelModule -->
<g id="edge3" class="edge">
<title>ChannelService&#45;&gt;ChannelModule</title>
<path fill="none" stroke="black" d="M676,-122.28C676,-143.32 676,-175 676,-175 676,-175 399.12,-175 399.12,-175"/>
<polygon fill="black" stroke="black" points="399.13,-171.5 389.12,-175 399.12,-178.5 399.13,-171.5"/>
</g>
<!-- ForumRepository -->
<g id="node5" class="node">
<title>ForumRepository</title>
<ellipse fill="#fdb462" stroke="black" cx="507" cy="-104" rx="79.33" ry="18"/>
<text text-anchor="middle" x="507" y="-99.8" font-family="Times,serif" font-size="14.00">ForumRepository</text>
</g>
<!-- ForumRepository&#45;&gt;ChannelModule -->
<g id="edge4" class="edge">
<title>ForumRepository&#45;&gt;ChannelModule</title>
<path fill="none" stroke="black" d="M507,-122.02C507,-139.37 507,-163 507,-163 507,-163 399.17,-163 399.17,-163"/>
<polygon fill="black" stroke="black" points="399.17,-159.5 389.17,-163 399.17,-166.5 399.17,-159.5"/>
</g>
<!-- MessageService -->
<g id="node6" class="node">
<title>MessageService</title>
<ellipse fill="#fdb462" stroke="black" cx="336" cy="-104" rx="73.55" ry="18"/>
<text text-anchor="middle" x="336" y="-99.8" font-family="Times,serif" font-size="14.00">MessageService</text>
</g>
<!-- MessageService&#45;&gt;ChannelModule -->
<g id="edge5" class="edge">
<title>MessageService&#45;&gt;ChannelModule</title>
<path fill="none" stroke="black" d="M336,-122.11C336,-122.11 336,-140.99 336,-140.99"/>
<polygon fill="black" stroke="black" points="332.5,-140.99 336,-150.99 339.5,-140.99 332.5,-140.99"/>
</g>
</g>
</svg>
