<?xml version="1.0" encoding="UTF-8" standalone="no"?>
<!DOCTYPE svg PUBLIC "-//W3C//DTD SVG 1.1//EN"
 "http://www.w3.org/Graphics/SVG/1.1/DTD/svg11.dtd">
<!-- Generated by graphviz version 2.47.0 (20210316.0004)
 -->
<!-- Title: dependencies Pages: 1 -->
<svg width="572pt" height="211pt"
 viewBox="0.00 0.00 572.00 211.00" xmlns="http://www.w3.org/2000/svg" xmlns:xlink="http://www.w3.org/1999/xlink">
<g id="graph0" class="graph" transform="scale(1 1) rotate(0) translate(4 207)">
<title>dependencies</title>
<polygon fill="white" stroke="transparent" points="-4,4 -4,-207 568,-207 568,4 -4,4"/>
<text text-anchor="start" x="261.01" y="-42.4" font-family="Times-12" font-weight="bold" font-size="14.00">Legend</text>
<polygon fill="#ffffb3" stroke="transparent" points="48,-10 48,-30 68,-30 68,-10 48,-10"/>
<text text-anchor="start" x="71.63" y="-15.4" font-family="Times-12" font-size="14.00"> &#160;Declarations</text>
<polygon fill="#8dd3c7" stroke="transparent" points="161,-10 161,-30 181,-30 181,-10 161,-10"/>
<text text-anchor="start" x="184.73" y="-15.4" font-family="Times-12" font-size="14.00"> &#160;Module</text>
<polygon fill="#80b1d3" stroke="transparent" points="247,-10 247,-30 267,-30 267,-10 247,-10"/>
<text text-anchor="start" x="270.78" y="-15.4" font-family="Times-12" font-size="14.00"> &#160;Bootstrap</text>
<polygon fill="#fdb462" stroke="transparent" points="344,-10 344,-30 364,-30 364,-10 344,-10"/>
<text text-anchor="start" x="367.67" y="-15.4" font-family="Times-12" font-size="14.00"> &#160;Providers</text>
<polygon fill="#fb8072" stroke="transparent" points="440,-10 440,-30 460,-30 460,-10 440,-10"/>
<text text-anchor="start" x="463.73" y="-15.4" font-family="Times-12" font-size="14.00"> &#160;Exports</text>
<g id="clust1" class="cluster">
<title>cluster_Neo4jModule</title>
<polygon fill="none" stroke="black" stroke-dasharray="1,5" points="8,-70 8,-195 556,-195 556,-70 8,-70"/>
</g>
<g id="clust6" class="cluster">
<title>cluster_Neo4jModule_providers</title>
<polygon fill="none" stroke="black" points="404,-78 404,-130 548,-130 548,-78 404,-78"/>
</g>
<g id="clust3" class="cluster">
<title>cluster_Neo4jModule_imports</title>
<polygon fill="none" stroke="black" points="16,-78 16,-130 396,-130 396,-78 16,-78"/>
</g>
<!-- HealthModule -->
<g id="node1" class="node">
<title>HealthModule</title>
<polygon fill="#8dd3c7" stroke="black" points="388.37,-122 385.37,-126 364.37,-126 361.37,-122 291.63,-122 291.63,-86 388.37,-86 388.37,-122"/>
<text text-anchor="middle" x="340" y="-99.8" font-family="Times,serif" font-size="14.00">HealthModule</text>
</g>
<!-- Neo4jModule -->
<g id="node4" class="node">
<title>Neo4jModule</title>
<polygon fill="#8dd3c7" stroke="black" points="247.76,-187 244.76,-191 223.76,-191 220.76,-187 154.24,-187 154.24,-151 247.76,-151 247.76,-187"/>
<text text-anchor="middle" x="201" y="-164.8" font-family="Times,serif" font-size="14.00">Neo4jModule</text>
</g>
<!-- HealthModule&#45;&gt;Neo4jModule -->
<g id="edge1" class="edge">
<title>HealthModule&#45;&gt;Neo4jModule</title>
<path fill="none" stroke="black" d="M340,-122.02C340,-139.37 340,-163 340,-163 340,-163 258.06,-163 258.06,-163"/>
<polygon fill="black" stroke="black" points="258.06,-159.5 248.06,-163 258.06,-166.5 258.06,-159.5"/>
</g>
<!-- Neo4jCommonModule -->
<g id="node2" class="node">
<title>Neo4jCommonModule</title>
<polygon fill="#8dd3c7" stroke="black" points="273.88,-122 270.88,-126 249.88,-126 246.88,-122 128.12,-122 128.12,-86 273.88,-86 273.88,-122"/>
<text text-anchor="middle" x="201" y="-99.8" font-family="Times,serif" font-size="14.00">Neo4jCommonModule</text>
</g>
<!-- Neo4jCommonModule&#45;&gt;Neo4jModule -->
<g id="edge2" class="edge">
<title>Neo4jCommonModule&#45;&gt;Neo4jModule</title>
<path fill="none" stroke="black" d="M201,-122.11C201,-122.11 201,-140.99 201,-140.99"/>
<polygon fill="black" stroke="black" points="197.5,-140.99 201,-150.99 204.5,-140.99 197.5,-140.99"/>
</g>
<!-- RmqModule -->
<g id="node3" class="node">
<title>RmqModule</title>
<polygon fill="#8dd3c7" stroke="black" points="110.28,-122 107.28,-126 86.28,-126 83.28,-122 23.72,-122 23.72,-86 110.28,-86 110.28,-122"/>
<text text-anchor="middle" x="67" y="-99.8" font-family="Times,serif" font-size="14.00">RmqModule</text>
</g>
<!-- RmqModule&#45;&gt;Neo4jModule -->
<g id="edge3" class="edge">
<title>RmqModule&#45;&gt;Neo4jModule</title>
<path fill="none" stroke="black" d="M81.46,-122.02C81.46,-139.37 81.46,-163 81.46,-163 81.46,-163 144.1,-163 144.1,-163"/>
<polygon fill="black" stroke="black" points="144.1,-166.5 154.1,-163 144.1,-159.5 144.1,-166.5"/>
</g>
<!-- RmqModule&#45;&gt;Neo4jModule -->
<g id="edge4" class="edge">
<title>RmqModule&#45;&gt;Neo4jModule</title>
<path fill="none" stroke="black" d="M52.54,-122.28C52.54,-143.32 52.54,-175 52.54,-175 52.54,-175 144.03,-175 144.03,-175"/>
<polygon fill="black" stroke="black" points="144.03,-178.5 154.03,-175 144.03,-171.5 144.03,-178.5"/>
</g>
<!-- Neo4jService -->
<g id="node5" class="node">
<title>Neo4jService</title>
<ellipse fill="#fdb462" stroke="black" cx="476" cy="-104" rx="63.68" ry="18"/>
<text text-anchor="middle" x="476" y="-99.8" font-family="Times,serif" font-size="14.00">Neo4jService</text>
</g>
<!-- Neo4jService&#45;&gt;Neo4jModule -->
<g id="edge5" class="edge">
<title>Neo4jService&#45;&gt;Neo4jModule</title>
<path fill="none" stroke="black" d="M476,-122.28C476,-143.32 476,-175 476,-175 476,-175 257.96,-175 257.96,-175"/>
<polygon fill="black" stroke="black" points="257.96,-171.5 247.96,-175 257.96,-178.5 257.96,-171.5"/>
</g>
</g>
</svg>
