<?xml version="1.0" encoding="UTF-8" standalone="no"?>
<!DOCTYPE svg PUBLIC "-//W3C//DTD SVG 1.1//EN"
 "http://www.w3.org/Graphics/SVG/1.1/DTD/svg11.dtd">
<!-- Generated by graphviz version 2.47.0 (20210316.0004)
 -->
<!-- Title: dependencies Pages: 1 -->
<svg width="564pt" height="211pt"
 viewBox="0.00 0.00 564.00 211.00" xmlns="http://www.w3.org/2000/svg" xmlns:xlink="http://www.w3.org/1999/xlink">
<g id="graph0" class="graph" transform="scale(1 1) rotate(0) translate(4 207)">
<title>dependencies</title>
<polygon fill="white" stroke="transparent" points="-4,4 -4,-207 560,-207 560,4 -4,4"/>
<text text-anchor="start" x="257.01" y="-42.4" font-family="Times-12" font-weight="bold" font-size="14.00">Legend</text>
<polygon fill="#ffffb3" stroke="transparent" points="44,-10 44,-30 64,-30 64,-10 44,-10"/>
<text text-anchor="start" x="67.63" y="-15.4" font-family="Times-12" font-size="14.00"> &#160;Declarations</text>
<polygon fill="#8dd3c7" stroke="transparent" points="157,-10 157,-30 177,-30 177,-10 157,-10"/>
<text text-anchor="start" x="180.73" y="-15.4" font-family="Times-12" font-size="14.00"> &#160;Module</text>
<polygon fill="#80b1d3" stroke="transparent" points="243,-10 243,-30 263,-30 263,-10 243,-10"/>
<text text-anchor="start" x="266.78" y="-15.4" font-family="Times-12" font-size="14.00"> &#160;Bootstrap</text>
<polygon fill="#fdb462" stroke="transparent" points="340,-10 340,-30 360,-30 360,-10 340,-10"/>
<text text-anchor="start" x="363.67" y="-15.4" font-family="Times-12" font-size="14.00"> &#160;Providers</text>
<polygon fill="#fb8072" stroke="transparent" points="436,-10 436,-30 456,-30 456,-10 436,-10"/>
<text text-anchor="start" x="459.73" y="-15.4" font-family="Times-12" font-size="14.00"> &#160;Exports</text>
<g id="clust1" class="cluster">
<title>cluster_BroadcastModule</title>
<polygon fill="none" stroke="black" stroke-dasharray="1,5" points="8,-70 8,-195 548,-195 548,-70 8,-70"/>
</g>
<g id="clust3" class="cluster">
<title>cluster_BroadcastModule_imports</title>
<polygon fill="none" stroke="black" points="198,-78 198,-130 540,-130 540,-78 198,-78"/>
</g>
<g id="clust6" class="cluster">
<title>cluster_BroadcastModule_providers</title>
<polygon fill="none" stroke="black" points="16,-78 16,-130 190,-130 190,-78 16,-78"/>
</g>
<!-- FirebaseModule -->
<g id="node1" class="node">
<title>FirebaseModule</title>
<polygon fill="#8dd3c7" stroke="black" points="532.47,-122 529.47,-126 508.47,-126 505.47,-122 425.53,-122 425.53,-86 532.47,-86 532.47,-122"/>
<text text-anchor="middle" x="479" y="-99.8" font-family="Times,serif" font-size="14.00">FirebaseModule</text>
</g>
<!-- BroadcastModule -->
<g id="node4" class="node">
<title>BroadcastModule</title>
<polygon fill="#8dd3c7" stroke="black" points="306.53,-187 303.53,-191 282.53,-191 279.53,-187 191.47,-187 191.47,-151 306.53,-151 306.53,-187"/>
<text text-anchor="middle" x="249" y="-164.8" font-family="Times,serif" font-size="14.00">BroadcastModule</text>
</g>
<!-- FirebaseModule&#45;&gt;BroadcastModule -->
<g id="edge1" class="edge">
<title>FirebaseModule&#45;&gt;BroadcastModule</title>
<path fill="none" stroke="black" d="M479,-122.11C479,-141.34 479,-169 479,-169 479,-169 316.74,-169 316.74,-169"/>
<polygon fill="black" stroke="black" points="316.74,-165.5 306.74,-169 316.74,-172.5 316.74,-165.5"/>
</g>
<!-- HealthModule -->
<g id="node2" class="node">
<title>HealthModule</title>
<polygon fill="#8dd3c7" stroke="black" points="407.37,-122 404.37,-126 383.37,-126 380.37,-122 310.63,-122 310.63,-86 407.37,-86 407.37,-122"/>
<text text-anchor="middle" x="359" y="-99.8" font-family="Times,serif" font-size="14.00">HealthModule</text>
</g>
<!-- HealthModule&#45;&gt;BroadcastModule -->
<g id="edge2" class="edge">
<title>HealthModule&#45;&gt;BroadcastModule</title>
<path fill="none" stroke="black" d="M310.48,-104C304.02,-104 299.58,-104 299.58,-104 299.58,-104 299.58,-140.89 299.58,-140.89"/>
<polygon fill="black" stroke="black" points="296.08,-140.89 299.58,-150.89 303.08,-140.89 296.08,-140.89"/>
</g>
<!-- RmqModule -->
<g id="node3" class="node">
<title>RmqModule</title>
<polygon fill="#8dd3c7" stroke="black" points="292.28,-122 289.28,-126 268.28,-126 265.28,-122 205.72,-122 205.72,-86 292.28,-86 292.28,-122"/>
<text text-anchor="middle" x="249" y="-99.8" font-family="Times,serif" font-size="14.00">RmqModule</text>
</g>
<!-- RmqModule&#45;&gt;BroadcastModule -->
<g id="edge3" class="edge">
<title>RmqModule&#45;&gt;BroadcastModule</title>
<path fill="none" stroke="black" d="M234.54,-122.11C234.54,-122.11 234.54,-140.99 234.54,-140.99"/>
<polygon fill="black" stroke="black" points="231.04,-140.99 234.54,-150.99 238.04,-140.99 231.04,-140.99"/>
</g>
<!-- RmqModule&#45;&gt;BroadcastModule -->
<g id="edge4" class="edge">
<title>RmqModule&#45;&gt;BroadcastModule</title>
<path fill="none" stroke="black" d="M263.46,-122.11C263.46,-122.11 263.46,-140.99 263.46,-140.99"/>
<polygon fill="black" stroke="black" points="259.96,-140.99 263.46,-150.99 266.96,-140.99 259.96,-140.99"/>
</g>
<!-- BroadcastService -->
<g id="node5" class="node">
<title>BroadcastService</title>
<ellipse fill="#fdb462" stroke="black" cx="103" cy="-104" rx="78.71" ry="18"/>
<text text-anchor="middle" x="103" y="-99.8" font-family="Times,serif" font-size="14.00">BroadcastService</text>
</g>
<!-- BroadcastService&#45;&gt;BroadcastModule -->
<g id="edge5" class="edge">
<title>BroadcastService&#45;&gt;BroadcastModule</title>
<path fill="none" stroke="black" d="M181.8,-104C191.69,-104 198.42,-104 198.42,-104 198.42,-104 198.42,-140.89 198.42,-140.89"/>
<polygon fill="black" stroke="black" points="194.92,-140.89 198.42,-150.89 201.92,-140.89 194.92,-140.89"/>
</g>
</g>
</svg>
