<?xml version="1.0" encoding="UTF-8" standalone="no"?>
<!DOCTYPE svg PUBLIC "-//W3C//DTD SVG 1.1//EN"
 "http://www.w3.org/Graphics/SVG/1.1/DTD/svg11.dtd">
<!-- Generated by graphviz version 2.47.0 (20210316.0004)
 -->
<!-- Title: dependencies Pages: 1 -->
<svg width="513pt" height="211pt"
 viewBox="0.00 0.00 513.00 211.00" xmlns="http://www.w3.org/2000/svg" xmlns:xlink="http://www.w3.org/1999/xlink">
<g id="graph0" class="graph" transform="scale(1 1) rotate(0) translate(4 207)">
<title>dependencies</title>
<polygon fill="white" stroke="transparent" points="-4,4 -4,-207 509,-207 509,4 -4,4"/>
<text text-anchor="start" x="231.51" y="-42.4" font-family="Times-12" font-weight="bold" font-size="14.00">Legend</text>
<polygon fill="#ffffb3" stroke="transparent" points="18.5,-10 18.5,-30 38.5,-30 38.5,-10 18.5,-10"/>
<text text-anchor="start" x="42.13" y="-15.4" font-family="Times-12" font-size="14.00"> &#160;Declarations</text>
<polygon fill="#8dd3c7" stroke="transparent" points="131.5,-10 131.5,-30 151.5,-30 151.5,-10 131.5,-10"/>
<text text-anchor="start" x="155.23" y="-15.4" font-family="Times-12" font-size="14.00"> &#160;Module</text>
<polygon fill="#80b1d3" stroke="transparent" points="217.5,-10 217.5,-30 237.5,-30 237.5,-10 217.5,-10"/>
<text text-anchor="start" x="241.28" y="-15.4" font-family="Times-12" font-size="14.00"> &#160;Bootstrap</text>
<polygon fill="#fdb462" stroke="transparent" points="314.5,-10 314.5,-30 334.5,-30 334.5,-10 314.5,-10"/>
<text text-anchor="start" x="338.17" y="-15.4" font-family="Times-12" font-size="14.00"> &#160;Providers</text>
<polygon fill="#fb8072" stroke="transparent" points="410.5,-10 410.5,-30 430.5,-30 430.5,-10 410.5,-10"/>
<text text-anchor="start" x="434.23" y="-15.4" font-family="Times-12" font-size="14.00"> &#160;Exports</text>
<g id="clust1" class="cluster">
<title>cluster_FileFlowEngineModule</title>
<polygon fill="none" stroke="black" stroke-dasharray="1,5" points="8,-70 8,-195 497,-195 497,-70 8,-70"/>
</g>
<g id="clust3" class="cluster">
<title>cluster_FileFlowEngineModule_imports</title>
<polygon fill="none" stroke="black" points="385,-78 385,-130 489,-130 489,-78 385,-78"/>
</g>
<g id="clust6" class="cluster">
<title>cluster_FileFlowEngineModule_providers</title>
<polygon fill="none" stroke="black" points="16,-78 16,-130 377,-130 377,-78 16,-78"/>
</g>
<!-- AuthModule -->
<g id="node1" class="node">
<title>AuthModule</title>
<polygon fill="#8dd3c7" stroke="black" points="480.55,-122 477.55,-126 456.55,-126 453.55,-122 393.45,-122 393.45,-86 480.55,-86 480.55,-122"/>
<text text-anchor="middle" x="437" y="-99.8" font-family="Times,serif" font-size="14.00">AuthModule</text>
</g>
<!-- FileFlowEngineModule -->
<g id="node2" class="node">
<title>FileFlowEngineModule</title>
<polygon fill="#8dd3c7" stroke="black" points="382.77,-187 379.77,-191 358.77,-191 355.77,-187 233.23,-187 233.23,-151 382.77,-151 382.77,-187"/>
<text text-anchor="middle" x="308" y="-164.8" font-family="Times,serif" font-size="14.00">FileFlowEngineModule</text>
</g>
<!-- AuthModule&#45;&gt;FileFlowEngineModule -->
<g id="edge1" class="edge">
<title>AuthModule&#45;&gt;FileFlowEngineModule</title>
<path fill="none" stroke="black" d="M393.44,-104C383.68,-104 376.16,-104 376.16,-104 376.16,-104 376.16,-140.89 376.16,-140.89"/>
<polygon fill="black" stroke="black" points="372.66,-140.89 376.16,-150.89 379.66,-140.89 372.66,-140.89"/>
</g>
<!-- AWSService -->
<g id="node3" class="node">
<title>AWSService</title>
<ellipse fill="#fdb462" stroke="black" cx="308" cy="-104" rx="61.39" ry="18"/>
<text text-anchor="middle" x="308" y="-99.8" font-family="Times,serif" font-size="14.00">AWSService</text>
</g>
<!-- AWSService&#45;&gt;FileFlowEngineModule -->
<g id="edge2" class="edge">
<title>AWSService&#45;&gt;FileFlowEngineModule</title>
<path fill="none" stroke="black" d="M308,-122.11C308,-122.11 308,-140.99 308,-140.99"/>
<polygon fill="black" stroke="black" points="304.5,-140.99 308,-150.99 311.5,-140.99 304.5,-140.99"/>
</g>
<!-- FileFlowEngineService -->
<g id="node4" class="node">
<title>FileFlowEngineService</title>
<ellipse fill="#fdb462" stroke="black" cx="126" cy="-104" rx="102.44" ry="18"/>
<text text-anchor="middle" x="126" y="-99.8" font-family="Times,serif" font-size="14.00">FileFlowEngineService</text>
</g>
<!-- FileFlowEngineService&#45;&gt;FileFlowEngineModule -->
<g id="edge3" class="edge">
<title>FileFlowEngineService&#45;&gt;FileFlowEngineModule</title>
<path fill="none" stroke="black" d="M228.5,-104C235.49,-104 239.84,-104 239.84,-104 239.84,-104 239.84,-140.89 239.84,-140.89"/>
<polygon fill="black" stroke="black" points="236.34,-140.89 239.84,-150.89 243.34,-140.89 236.34,-140.89"/>
</g>
</g>
</svg>
