<?xml version="1.0" encoding="UTF-8" standalone="no"?>
<!DOCTYPE svg PUBLIC "-//W3C//DTD SVG 1.1//EN"
 "http://www.w3.org/Graphics/SVG/1.1/DTD/svg11.dtd">
<!-- Generated by graphviz version 2.47.0 (20210316.0004)
 -->
<!-- Title: dependencies Pages: 1 -->
<svg width="504pt" height="211pt"
 viewBox="0.00 0.00 504.00 211.00" xmlns="http://www.w3.org/2000/svg" xmlns:xlink="http://www.w3.org/1999/xlink">
<g id="graph0" class="graph" transform="scale(1 1) rotate(0) translate(4 207)">
<title>dependencies</title>
<polygon fill="white" stroke="transparent" points="-4,4 -4,-207 500,-207 500,4 -4,4"/>
<text text-anchor="start" x="227.01" y="-42.4" font-family="Times-12" font-weight="bold" font-size="14.00">Legend</text>
<polygon fill="#ffffb3" stroke="transparent" points="14,-10 14,-30 34,-30 34,-10 14,-10"/>
<text text-anchor="start" x="37.63" y="-15.4" font-family="Times-12" font-size="14.00"> &#160;Declarations</text>
<polygon fill="#8dd3c7" stroke="transparent" points="127,-10 127,-30 147,-30 147,-10 127,-10"/>
<text text-anchor="start" x="150.73" y="-15.4" font-family="Times-12" font-size="14.00"> &#160;Module</text>
<polygon fill="#80b1d3" stroke="transparent" points="213,-10 213,-30 233,-30 233,-10 213,-10"/>
<text text-anchor="start" x="236.78" y="-15.4" font-family="Times-12" font-size="14.00"> &#160;Bootstrap</text>
<polygon fill="#fdb462" stroke="transparent" points="310,-10 310,-30 330,-30 330,-10 310,-10"/>
<text text-anchor="start" x="333.67" y="-15.4" font-family="Times-12" font-size="14.00"> &#160;Providers</text>
<polygon fill="#fb8072" stroke="transparent" points="406,-10 406,-30 426,-30 426,-10 406,-10"/>
<text text-anchor="start" x="429.73" y="-15.4" font-family="Times-12" font-size="14.00"> &#160;Exports</text>
<g id="clust1" class="cluster">
<title>cluster_ActivityModule</title>
<polygon fill="none" stroke="black" stroke-dasharray="1,5" points="11,-70 11,-195 485,-195 485,-70 11,-70"/>
</g>
<g id="clust3" class="cluster">
<title>cluster_ActivityModule_imports</title>
<polygon fill="none" stroke="black" points="375,-78 375,-130 477,-130 477,-78 375,-78"/>
</g>
<g id="clust6" class="cluster">
<title>cluster_ActivityModule_providers</title>
<polygon fill="none" stroke="black" points="19,-78 19,-130 367,-130 367,-78 19,-78"/>
</g>
<!-- RmqModule -->
<g id="node1" class="node">
<title>RmqModule</title>
<polygon fill="#8dd3c7" stroke="black" points="469.28,-122 466.28,-126 445.28,-126 442.28,-122 382.72,-122 382.72,-86 469.28,-86 469.28,-122"/>
<text text-anchor="middle" x="426" y="-99.8" font-family="Times,serif" font-size="14.00">RmqModule</text>
</g>
<!-- ActivityModule -->
<g id="node2" class="node">
<title>ActivityModule</title>
<polygon fill="#8dd3c7" stroke="black" points="326.93,-187 323.93,-191 302.93,-191 299.93,-187 221.07,-187 221.07,-151 326.93,-151 326.93,-187"/>
<text text-anchor="middle" x="274" y="-164.8" font-family="Times,serif" font-size="14.00">ActivityModule</text>
</g>
<!-- RmqModule&#45;&gt;ActivityModule -->
<g id="edge1" class="edge">
<title>RmqModule&#45;&gt;ActivityModule</title>
<path fill="none" stroke="black" d="M426,-122.11C426,-141.34 426,-169 426,-169 426,-169 336.74,-169 336.74,-169"/>
<polygon fill="black" stroke="black" points="336.74,-165.5 326.74,-169 336.74,-172.5 336.74,-165.5"/>
</g>
<!-- ActivityRepository -->
<g id="node3" class="node">
<title>ActivityRepository</title>
<ellipse fill="#fdb462" stroke="black" cx="274" cy="-104" rx="85.13" ry="18"/>
<text text-anchor="middle" x="274" y="-99.8" font-family="Times,serif" font-size="14.00">ActivityRepository</text>
</g>
<!-- ActivityRepository&#45;&gt;ActivityModule -->
<g id="edge2" class="edge">
<title>ActivityRepository&#45;&gt;ActivityModule</title>
<path fill="none" stroke="black" d="M274,-122.11C274,-122.11 274,-140.99 274,-140.99"/>
<polygon fill="black" stroke="black" points="270.5,-140.99 274,-150.99 277.5,-140.99 270.5,-140.99"/>
</g>
<!-- ActivityService -->
<g id="node4" class="node">
<title>ActivityService</title>
<ellipse fill="#fdb462" stroke="black" cx="99" cy="-104" rx="71.78" ry="18"/>
<text text-anchor="middle" x="99" y="-99.8" font-family="Times,serif" font-size="14.00">ActivityService</text>
</g>
<!-- ActivityService&#45;&gt;ActivityModule -->
<g id="edge3" class="edge">
<title>ActivityService&#45;&gt;ActivityModule</title>
<path fill="none" stroke="black" d="M99,-122.11C99,-141.34 99,-169 99,-169 99,-169 211.02,-169 211.02,-169"/>
<polygon fill="black" stroke="black" points="211.02,-172.5 221.02,-169 211.02,-165.5 211.02,-172.5"/>
</g>
</g>
</svg>
