<?xml version="1.0" encoding="UTF-8" standalone="no"?>
<!DOCTYPE svg PUBLIC "-//W3C//DTD SVG 1.1//EN"
 "http://www.w3.org/Graphics/SVG/1.1/DTD/svg11.dtd">
<!-- Generated by graphviz version 2.47.0 (20210316.0004)
 -->
<!-- Title: dependencies Pages: 1 -->
<svg width="548pt" height="211pt"
 viewBox="0.00 0.00 548.00 211.00" xmlns="http://www.w3.org/2000/svg" xmlns:xlink="http://www.w3.org/1999/xlink">
<g id="graph0" class="graph" transform="scale(1 1) rotate(0) translate(4 207)">
<title>dependencies</title>
<polygon fill="white" stroke="transparent" points="-4,4 -4,-207 544,-207 544,4 -4,4"/>
<text text-anchor="start" x="249.01" y="-42.4" font-family="Times-12" font-weight="bold" font-size="14.00">Legend</text>
<polygon fill="#ffffb3" stroke="transparent" points="36,-10 36,-30 56,-30 56,-10 36,-10"/>
<text text-anchor="start" x="59.63" y="-15.4" font-family="Times-12" font-size="14.00"> &#160;Declarations</text>
<polygon fill="#8dd3c7" stroke="transparent" points="149,-10 149,-30 169,-30 169,-10 149,-10"/>
<text text-anchor="start" x="172.73" y="-15.4" font-family="Times-12" font-size="14.00"> &#160;Module</text>
<polygon fill="#80b1d3" stroke="transparent" points="235,-10 235,-30 255,-30 255,-10 235,-10"/>
<text text-anchor="start" x="258.78" y="-15.4" font-family="Times-12" font-size="14.00"> &#160;Bootstrap</text>
<polygon fill="#fdb462" stroke="transparent" points="332,-10 332,-30 352,-30 352,-10 332,-10"/>
<text text-anchor="start" x="355.67" y="-15.4" font-family="Times-12" font-size="14.00"> &#160;Providers</text>
<polygon fill="#fb8072" stroke="transparent" points="428,-10 428,-30 448,-30 448,-10 428,-10"/>
<text text-anchor="start" x="451.73" y="-15.4" font-family="Times-12" font-size="14.00"> &#160;Exports</text>
<g id="clust1" class="cluster">
<title>cluster_PingModule</title>
<polygon fill="none" stroke="black" stroke-dasharray="1,5" points="8,-70 8,-195 532,-195 532,-70 8,-70"/>
</g>
<g id="clust3" class="cluster">
<title>cluster_PingModule_imports</title>
<polygon fill="none" stroke="black" points="316,-78 316,-130 524,-130 524,-78 316,-78"/>
</g>
<g id="clust6" class="cluster">
<title>cluster_PingModule_providers</title>
<polygon fill="none" stroke="black" points="16,-78 16,-130 308,-130 308,-78 16,-78"/>
</g>
<!-- AuthModule -->
<g id="node1" class="node">
<title>AuthModule</title>
<polygon fill="#8dd3c7" stroke="black" points="515.55,-122 512.55,-126 491.55,-126 488.55,-122 428.45,-122 428.45,-86 515.55,-86 515.55,-122"/>
<text text-anchor="middle" x="472" y="-99.8" font-family="Times,serif" font-size="14.00">AuthModule</text>
</g>
<!-- PingModule -->
<g id="node3" class="node">
<title>PingModule</title>
<polygon fill="#8dd3c7" stroke="black" points="340.72,-187 337.72,-191 316.72,-191 313.72,-187 255.28,-187 255.28,-151 340.72,-151 340.72,-187"/>
<text text-anchor="middle" x="298" y="-164.8" font-family="Times,serif" font-size="14.00">PingModule</text>
</g>
<!-- AuthModule&#45;&gt;PingModule -->
<g id="edge1" class="edge">
<title>AuthModule&#45;&gt;PingModule</title>
<path fill="none" stroke="black" d="M472,-122.11C472,-141.34 472,-169 472,-169 472,-169 351.01,-169 351.01,-169"/>
<polygon fill="black" stroke="black" points="351.01,-165.5 341.01,-169 351.01,-172.5 351.01,-165.5"/>
</g>
<!-- RmqModule -->
<g id="node2" class="node">
<title>RmqModule</title>
<polygon fill="#8dd3c7" stroke="black" points="410.28,-122 407.28,-126 386.28,-126 383.28,-122 323.72,-122 323.72,-86 410.28,-86 410.28,-122"/>
<text text-anchor="middle" x="367" y="-99.8" font-family="Times,serif" font-size="14.00">RmqModule</text>
</g>
<!-- RmqModule&#45;&gt;PingModule -->
<g id="edge2" class="edge">
<title>RmqModule&#45;&gt;PingModule</title>
<path fill="none" stroke="black" d="M332.11,-122.11C332.11,-122.11 332.11,-140.99 332.11,-140.99"/>
<polygon fill="black" stroke="black" points="328.61,-140.99 332.11,-150.99 335.61,-140.99 328.61,-140.99"/>
</g>
<!-- PingRepository -->
<g id="node4" class="node">
<title>PingRepository</title>
<ellipse fill="#fdb462" stroke="black" cx="229" cy="-104" rx="71.25" ry="18"/>
<text text-anchor="middle" x="229" y="-99.8" font-family="Times,serif" font-size="14.00">PingRepository</text>
</g>
<!-- PingRepository&#45;&gt;PingModule -->
<g id="edge3" class="edge">
<title>PingRepository&#45;&gt;PingModule</title>
<path fill="none" stroke="black" d="M277.76,-117.15C277.76,-117.15 277.76,-140.69 277.76,-140.69"/>
<polygon fill="black" stroke="black" points="274.26,-140.69 277.76,-150.69 281.26,-140.69 274.26,-140.69"/>
</g>
<!-- PingService -->
<g id="node5" class="node">
<title>PingService</title>
<ellipse fill="#fdb462" stroke="black" cx="82" cy="-104" rx="57.9" ry="18"/>
<text text-anchor="middle" x="82" y="-99.8" font-family="Times,serif" font-size="14.00">PingService</text>
</g>
<!-- PingService&#45;&gt;PingModule -->
<g id="edge4" class="edge">
<title>PingService&#45;&gt;PingModule</title>
<path fill="none" stroke="black" d="M82,-122.11C82,-141.34 82,-169 82,-169 82,-169 245.33,-169 245.33,-169"/>
<polygon fill="black" stroke="black" points="245.33,-172.5 255.33,-169 245.33,-165.5 245.33,-172.5"/>
</g>
</g>
</svg>
