<?xml version="1.0" encoding="UTF-8" standalone="no"?>
<!DOCTYPE svg PUBLIC "-//W3C//DTD SVG 1.1//EN"
 "http://www.w3.org/Graphics/SVG/1.1/DTD/svg11.dtd">
<!-- Generated by graphviz version 2.47.0 (20210316.0004)
 -->
<!-- Title: dependencies Pages: 1 -->
<svg width="504pt" height="211pt"
 viewBox="0.00 0.00 504.00 211.00" xmlns="http://www.w3.org/2000/svg" xmlns:xlink="http://www.w3.org/1999/xlink">
<g id="graph0" class="graph" transform="scale(1 1) rotate(0) translate(4 207)">
<title>dependencies</title>
<polygon fill="white" stroke="transparent" points="-4,4 -4,-207 500,-207 500,4 -4,4"/>
<text text-anchor="start" x="227.01" y="-42.4" font-family="Times-12" font-weight="bold" font-size="14.00">Legend</text>
<polygon fill="#ffffb3" stroke="transparent" points="14,-10 14,-30 34,-30 34,-10 14,-10"/>
<text text-anchor="start" x="37.63" y="-15.4" font-family="Times-12" font-size="14.00"> &#160;Declarations</text>
<polygon fill="#8dd3c7" stroke="transparent" points="127,-10 127,-30 147,-30 147,-10 127,-10"/>
<text text-anchor="start" x="150.73" y="-15.4" font-family="Times-12" font-size="14.00"> &#160;Module</text>
<polygon fill="#80b1d3" stroke="transparent" points="213,-10 213,-30 233,-30 233,-10 213,-10"/>
<text text-anchor="start" x="236.78" y="-15.4" font-family="Times-12" font-size="14.00"> &#160;Bootstrap</text>
<polygon fill="#fdb462" stroke="transparent" points="310,-10 310,-30 330,-30 330,-10 310,-10"/>
<text text-anchor="start" x="333.67" y="-15.4" font-family="Times-12" font-size="14.00"> &#160;Providers</text>
<polygon fill="#fb8072" stroke="transparent" points="406,-10 406,-30 426,-30 426,-10 406,-10"/>
<text text-anchor="start" x="429.73" y="-15.4" font-family="Times-12" font-size="14.00"> &#160;Exports</text>
<g id="clust1" class="cluster">
<title>cluster_DeletionServiceModule</title>
<polygon fill="none" stroke="black" stroke-dasharray="1,5" points="75,-70 75,-195 421,-195 421,-70 75,-70"/>
</g>
<g id="clust6" class="cluster">
<title>cluster_DeletionServiceModule_providers</title>
<polygon fill="none" stroke="black" points="193,-78 193,-130 413,-130 413,-78 193,-78"/>
</g>
<g id="clust3" class="cluster">
<title>cluster_DeletionServiceModule_imports</title>
<polygon fill="none" stroke="black" points="83,-78 83,-130 185,-130 185,-78 83,-78"/>
</g>
<!-- RmqModule -->
<g id="node1" class="node">
<title>RmqModule</title>
<polygon fill="#8dd3c7" stroke="black" points="177.28,-122 174.28,-126 153.28,-126 150.28,-122 90.72,-122 90.72,-86 177.28,-86 177.28,-122"/>
<text text-anchor="middle" x="134" y="-99.8" font-family="Times,serif" font-size="14.00">RmqModule</text>
</g>
<!-- DeletionServiceModule -->
<g id="node2" class="node">
<title>DeletionServiceModule</title>
<polygon fill="#8dd3c7" stroke="black" points="304.74,-187 301.74,-191 280.74,-191 277.74,-187 155.26,-187 155.26,-151 304.74,-151 304.74,-187"/>
<text text-anchor="middle" x="230" y="-164.8" font-family="Times,serif" font-size="14.00">DeletionServiceModule</text>
</g>
<!-- RmqModule&#45;&gt;DeletionServiceModule -->
<g id="edge1" class="edge">
<title>RmqModule&#45;&gt;DeletionServiceModule</title>
<path fill="none" stroke="black" d="M166.26,-122.11C166.26,-122.11 166.26,-140.99 166.26,-140.99"/>
<polygon fill="black" stroke="black" points="162.76,-140.99 166.26,-150.99 169.76,-140.99 162.76,-140.99"/>
</g>
<!-- DeletionServiceService -->
<g id="node3" class="node">
<title>DeletionServiceService</title>
<ellipse fill="#fdb462" stroke="black" cx="303" cy="-104" rx="102.4" ry="18"/>
<text text-anchor="middle" x="303" y="-99.8" font-family="Times,serif" font-size="14.00">DeletionServiceService</text>
</g>
<!-- DeletionServiceService&#45;&gt;DeletionServiceModule -->
<g id="edge2" class="edge">
<title>DeletionServiceService&#45;&gt;DeletionServiceModule</title>
<path fill="none" stroke="black" d="M252.83,-119.73C252.83,-119.73 252.83,-140.65 252.83,-140.65"/>
<polygon fill="black" stroke="black" points="249.33,-140.65 252.83,-150.65 256.33,-140.65 249.33,-140.65"/>
</g>
</g>
</svg>
