<?xml version="1.0" encoding="UTF-8" standalone="no"?>
<!DOCTYPE svg PUBLIC "-//W3C//DTD SVG 1.1//EN"
 "http://www.w3.org/Graphics/SVG/1.1/DTD/svg11.dtd">
<!-- Generated by graphviz version 2.47.0 (20210316.0004)
 -->
<!-- Title: dependencies Pages: 1 -->
<svg width="504pt" height="284pt"
 viewBox="0.00 0.00 504.00 284.00" xmlns="http://www.w3.org/2000/svg" xmlns:xlink="http://www.w3.org/1999/xlink">
<g id="graph0" class="graph" transform="scale(1 1) rotate(0) translate(4 280)">
<title>dependencies</title>
<polygon fill="white" stroke="transparent" points="-4,4 -4,-280 500,-280 500,4 -4,4"/>
<text text-anchor="start" x="227.01" y="-42.4" font-family="Times-12" font-weight="bold" font-size="14.00">Legend</text>
<polygon fill="#ffffb3" stroke="transparent" points="14,-10 14,-30 34,-30 34,-10 14,-10"/>
<text text-anchor="start" x="37.63" y="-15.4" font-family="Times-12" font-size="14.00"> &#160;Declarations</text>
<polygon fill="#8dd3c7" stroke="transparent" points="127,-10 127,-30 147,-30 147,-10 127,-10"/>
<text text-anchor="start" x="150.73" y="-15.4" font-family="Times-12" font-size="14.00"> &#160;Module</text>
<polygon fill="#80b1d3" stroke="transparent" points="213,-10 213,-30 233,-30 233,-10 213,-10"/>
<text text-anchor="start" x="236.78" y="-15.4" font-family="Times-12" font-size="14.00"> &#160;Bootstrap</text>
<polygon fill="#fdb462" stroke="transparent" points="310,-10 310,-30 330,-30 330,-10 310,-10"/>
<text text-anchor="start" x="333.67" y="-15.4" font-family="Times-12" font-size="14.00"> &#160;Providers</text>
<polygon fill="#fb8072" stroke="transparent" points="406,-10 406,-30 426,-30 426,-10 406,-10"/>
<text text-anchor="start" x="429.73" y="-15.4" font-family="Times-12" font-size="14.00"> &#160;Exports</text>
<g id="clust1" class="cluster">
<title>cluster_MessageModule</title>
<polygon fill="none" stroke="black" stroke-dasharray="1,5" points="70,-70 70,-268 426,-268 426,-70 70,-70"/>
</g>
<g id="clust4" class="cluster">
<title>cluster_MessageModule_exports</title>
<polygon fill="none" stroke="black" points="182,-208 182,-260 308,-260 308,-208 182,-208"/>
</g>
<g id="clust6" class="cluster">
<title>cluster_MessageModule_providers</title>
<polygon fill="none" stroke="black" points="78,-78 78,-130 418,-130 418,-78 78,-78"/>
</g>
<!-- MessageService  -->
<g id="node1" class="node">
<title>MessageService </title>
<polygon fill="#fb8072" stroke="black" points="300.46,-252 189.54,-252 189.54,-216 300.46,-216 300.46,-252"/>
<text text-anchor="middle" x="245" y="-229.8" font-family="Times,serif" font-size="14.00">MessageService </text>
</g>
<!-- MessageModule -->
<g id="node2" class="node">
<title>MessageModule</title>
<polygon fill="#8dd3c7" stroke="black" points="299.03,-187 296.03,-191 275.03,-191 272.03,-187 190.97,-187 190.97,-151 299.03,-151 299.03,-187"/>
<text text-anchor="middle" x="245" y="-164.8" font-family="Times,serif" font-size="14.00">MessageModule</text>
</g>
<!-- MessageModule&#45;&gt;MessageService  -->
<g id="edge1" class="edge">
<title>MessageModule&#45;&gt;MessageService </title>
<path fill="none" stroke="black" stroke-dasharray="5,2" d="M245,-187.11C245,-187.11 245,-205.99 245,-205.99"/>
<polygon fill="black" stroke="black" points="241.5,-205.99 245,-215.99 248.5,-205.99 241.5,-205.99"/>
</g>
<!-- ForumRepository -->
<g id="node3" class="node">
<title>ForumRepository</title>
<ellipse fill="#fdb462" stroke="black" cx="331" cy="-104" rx="79.33" ry="18"/>
<text text-anchor="middle" x="331" y="-99.8" font-family="Times,serif" font-size="14.00">ForumRepository</text>
</g>
<!-- ForumRepository&#45;&gt;MessageModule -->
<g id="edge2" class="edge">
<title>ForumRepository&#45;&gt;MessageModule</title>
<path fill="none" stroke="black" d="M275.55,-117.15C275.55,-117.15 275.55,-140.69 275.55,-140.69"/>
<polygon fill="black" stroke="black" points="272.05,-140.69 275.55,-150.69 279.05,-140.69 272.05,-140.69"/>
</g>
<!-- MessageService -->
<g id="node4" class="node">
<title>MessageService</title>
<ellipse fill="#fdb462" stroke="black" cx="160" cy="-104" rx="73.55" ry="18"/>
<text text-anchor="middle" x="160" y="-99.8" font-family="Times,serif" font-size="14.00">MessageService</text>
</g>
<!-- MessageService&#45;&gt;MessageModule -->
<g id="edge3" class="edge">
<title>MessageService&#45;&gt;MessageModule</title>
<path fill="none" stroke="black" d="M212.26,-116.84C212.26,-116.84 212.26,-140.52 212.26,-140.52"/>
<polygon fill="black" stroke="black" points="208.76,-140.52 212.26,-150.52 215.76,-140.52 208.76,-140.52"/>
</g>
</g>
</svg>
