<?xml version="1.0" encoding="UTF-8" standalone="no"?>
<!DOCTYPE svg PUBLIC "-//W3C//DTD SVG 1.1//EN"
 "http://www.w3.org/Graphics/SVG/1.1/DTD/svg11.dtd">
<!-- Generated by graphviz version 2.47.0 (20210316.0004)
 -->
<!-- Title: dependencies Pages: 1 -->
<svg width="2903pt" height="363pt"
 viewBox="0.00 0.00 2903.00 363.00" xmlns="http://www.w3.org/2000/svg" xmlns:xlink="http://www.w3.org/1999/xlink">
<g id="graph0" class="graph" transform="scale(1 1) rotate(0) translate(4 359)">
<title>dependencies</title>
<polygon fill="white" stroke="transparent" points="-4,4 -4,-359 2899,-359 2899,4 -4,4"/>
<text text-anchor="start" x="1426.51" y="-42.4" font-family="Times-12" font-weight="bold" font-size="14.00">Legend</text>
<polygon fill="#ffffb3" stroke="transparent" points="1213.5,-10 1213.5,-30 1233.5,-30 1233.5,-10 1213.5,-10"/>
<text text-anchor="start" x="1237.13" y="-15.4" font-family="Times-12" font-size="14.00"> &#160;Declarations</text>
<polygon fill="#8dd3c7" stroke="transparent" points="1326.5,-10 1326.5,-30 1346.5,-30 1346.5,-10 1326.5,-10"/>
<text text-anchor="start" x="1350.23" y="-15.4" font-family="Times-12" font-size="14.00"> &#160;Module</text>
<polygon fill="#80b1d3" stroke="transparent" points="1412.5,-10 1412.5,-30 1432.5,-30 1432.5,-10 1412.5,-10"/>
<text text-anchor="start" x="1436.28" y="-15.4" font-family="Times-12" font-size="14.00"> &#160;Bootstrap</text>
<polygon fill="#fdb462" stroke="transparent" points="1509.5,-10 1509.5,-30 1529.5,-30 1529.5,-10 1509.5,-10"/>
<text text-anchor="start" x="1533.17" y="-15.4" font-family="Times-12" font-size="14.00"> &#160;Providers</text>
<polygon fill="#fb8072" stroke="transparent" points="1605.5,-10 1605.5,-30 1625.5,-30 1625.5,-10 1605.5,-10"/>
<text text-anchor="start" x="1629.23" y="-15.4" font-family="Times-12" font-size="14.00"> &#160;Exports</text>
<g id="clust1" class="cluster">
<title>cluster_ActivityModule</title>
<polygon fill="none" stroke="black" stroke-dasharray="1,5" points="8,-146 8,-282 482,-282 482,-146 8,-146"/>
</g>
<g id="clust3" class="cluster">
<title>cluster_ActivityModule_imports</title>
<polygon fill="none" stroke="black" points="372,-154 372,-206 474,-206 474,-154 372,-154"/>
</g>
<g id="clust6" class="cluster">
<title>cluster_ActivityModule_providers</title>
<polygon fill="none" stroke="black" points="16,-154 16,-206 364,-206 364,-154 16,-154"/>
</g>
<g id="clust7" class="cluster">
<title>cluster_AppModule</title>
<polygon fill="none" stroke="black" stroke-dasharray="1,5" points="906,-146 906,-347 1442,-347 1442,-146 906,-146"/>
</g>
<g id="clust9" class="cluster">
<title>cluster_AppModule_imports</title>
<polygon fill="none" stroke="black" points="1052,-154 1052,-282 1396,-282 1396,-154 1052,-154"/>
</g>
<g id="clust12" class="cluster">
<title>cluster_AppModule_providers</title>
<polygon fill="none" stroke="black" points="914,-230 914,-282 1044,-282 1044,-230 914,-230"/>
</g>
<g id="clust13" class="cluster">
<title>cluster_AuthModule</title>
<polygon fill="none" stroke="black" stroke-dasharray="1,5" points="1003,-70 1003,-138 1691,-138 1691,-70 1003,-70"/>
</g>
<g id="clust15" class="cluster">
<title>cluster_AuthModule_imports</title>
<polygon fill="none" stroke="black" points="1569,-78 1569,-130 1683,-130 1683,-78 1569,-78"/>
</g>
<g id="clust16" class="cluster">
<title>cluster_AuthModule_exports</title>
<polygon fill="none" stroke="black" points="1441,-78 1441,-130 1561,-130 1561,-78 1441,-78"/>
</g>
<g id="clust18" class="cluster">
<title>cluster_AuthModule_providers</title>
<polygon fill="none" stroke="black" points="1011,-78 1011,-130 1433,-130 1433,-78 1011,-78"/>
</g>
<g id="clust19" class="cluster">
<title>cluster_BroadcastModule</title>
<polygon fill="none" stroke="black" stroke-dasharray="1,5" points="1600,-146 1600,-282 1920,-282 1920,-146 1600,-146"/>
</g>
<g id="clust21" class="cluster">
<title>cluster_BroadcastModule_imports</title>
<polygon fill="none" stroke="black" points="1790,-154 1790,-206 1912,-206 1912,-154 1790,-154"/>
</g>
<g id="clust24" class="cluster">
<title>cluster_BroadcastModule_providers</title>
<polygon fill="none" stroke="black" points="1608,-154 1608,-206 1782,-206 1782,-154 1608,-154"/>
</g>
<g id="clust25" class="cluster">
<title>cluster_ChannelModule</title>
<polygon fill="none" stroke="black" stroke-dasharray="1,5" points="295,-70 295,-138 813,-138 813,-70 295,-70"/>
</g>
<g id="clust30" class="cluster">
<title>cluster_ChannelModule_providers</title>
<polygon fill="none" stroke="black" points="303,-78 303,-130 805,-130 805,-78 303,-78"/>
</g>
<g id="clust31" class="cluster">
<title>cluster_DeletionServiceModule</title>
<polygon fill="none" stroke="black" stroke-dasharray="1,5" points="2266,-146 2266,-282 2502,-282 2502,-146 2266,-146"/>
</g>
<g id="clust36" class="cluster">
<title>cluster_DeletionServiceModule_providers</title>
<polygon fill="none" stroke="black" points="2274,-154 2274,-206 2494,-206 2494,-154 2274,-154"/>
</g>
<g id="clust37" class="cluster">
<title>cluster_FileFlowEngineModule</title>
<polygon fill="none" stroke="black" stroke-dasharray="1,5" points="2510,-146 2510,-282 2887,-282 2887,-146 2510,-146"/>
</g>
<g id="clust42" class="cluster">
<title>cluster_FileFlowEngineModule_providers</title>
<polygon fill="none" stroke="black" points="2518,-154 2518,-206 2879,-206 2879,-154 2518,-154"/>
</g>
<g id="clust49" class="cluster">
<title>cluster_HealthModule</title>
<polygon fill="none" stroke="black" stroke-dasharray="1,5" points="821,-70 821,-138 995,-138 995,-70 821,-70"/>
</g>
<g id="clust54" class="cluster">
<title>cluster_HealthModule_providers</title>
<polygon fill="none" stroke="black" points="829,-78 829,-130 987,-130 987,-78 829,-78"/>
</g>
<g id="clust55" class="cluster">
<title>cluster_MessageModule</title>
<polygon fill="none" stroke="black" stroke-dasharray="1,5" points="1450,-222 1450,-290 1592,-290 1592,-222 1450,-222"/>
</g>
<g id="clust58" class="cluster">
<title>cluster_MessageModule_exports</title>
<polygon fill="none" stroke="black" points="1458,-230 1458,-282 1584,-282 1584,-230 1458,-230"/>
</g>
<g id="clust67" class="cluster">
<title>cluster_Neo4jModule</title>
<polygon fill="none" stroke="black" stroke-dasharray="1,5" points="1928,-146 1928,-282 2258,-282 2258,-146 1928,-146"/>
</g>
<g id="clust69" class="cluster">
<title>cluster_Neo4jModule_imports</title>
<polygon fill="none" stroke="black" points="2088,-154 2088,-206 2250,-206 2250,-154 2088,-154"/>
</g>
<g id="clust72" class="cluster">
<title>cluster_Neo4jModule_providers</title>
<polygon fill="none" stroke="black" points="1936,-154 1936,-206 2080,-206 2080,-154 1936,-154"/>
</g>
<g id="clust73" class="cluster">
<title>cluster_PingModule</title>
<polygon fill="none" stroke="black" stroke-dasharray="1,5" points="594,-146 594,-214 742,-214 742,-146 594,-146"/>
</g>
<g id="clust78" class="cluster">
<title>cluster_PingModule_providers</title>
<polygon fill="none" stroke="black" points="602,-154 602,-206 734,-206 734,-154 602,-154"/>
</g>
<g id="clust85" class="cluster">
<title>cluster_RmqModule</title>
<polygon fill="none" stroke="black" stroke-dasharray="1,5" points="490,-222 490,-290 764,-290 764,-222 490,-222"/>
</g>
<g id="clust88" class="cluster">
<title>cluster_RmqModule_exports</title>
<polygon fill="none" stroke="black" points="646,-230 646,-282 756,-282 756,-230 646,-230"/>
</g>
<g id="clust90" class="cluster">
<title>cluster_RmqModule_providers</title>
<polygon fill="none" stroke="black" points="498,-230 498,-282 638,-282 638,-230 498,-230"/>
</g>
<g id="clust91" class="cluster">
<title>cluster_UserModule</title>
<polygon fill="none" stroke="black" stroke-dasharray="1,5" points="750,-146 750,-214 898,-214 898,-146 750,-146"/>
</g>
<g id="clust96" class="cluster">
<title>cluster_UserModule_providers</title>
<polygon fill="none" stroke="black" points="758,-154 758,-206 890,-206 890,-154 758,-154"/>
</g>
<!-- RmqModule -->
<g id="node1" class="node">
<title>RmqModule</title>
<polygon fill="#8dd3c7" stroke="black" points="466.28,-198 463.28,-202 442.28,-202 439.28,-198 379.72,-198 379.72,-162 466.28,-162 466.28,-198"/>
<text text-anchor="middle" x="423" y="-175.8" font-family="Times,serif" font-size="14.00">RmqModule</text>
</g>
<!-- ActivityModule -->
<g id="node2" class="node">
<title>ActivityModule</title>
<polygon fill="#8dd3c7" stroke="black" points="323.93,-274 320.93,-278 299.93,-278 296.93,-274 218.07,-274 218.07,-238 323.93,-238 323.93,-274"/>
<text text-anchor="middle" x="271" y="-251.8" font-family="Times,serif" font-size="14.00">ActivityModule</text>
</g>
<!-- RmqModule&#45;&gt;ActivityModule -->
<g id="edge1" class="edge">
<title>RmqModule&#45;&gt;ActivityModule</title>
<path fill="none" stroke="black" d="M444.69,-198.03C444.69,-218.77 444.69,-250 444.69,-250 444.69,-250 334.06,-250 334.06,-250"/>
<polygon fill="black" stroke="black" points="334.06,-246.5 324.06,-250 334.06,-253.5 334.06,-246.5"/>
</g>
<!-- PingModule -->
<g id="node12" class="node">
<title>PingModule</title>
<polygon fill="#8dd3c7" stroke="black" points="1269.72,-274 1266.72,-278 1245.72,-278 1242.72,-274 1184.28,-274 1184.28,-238 1269.72,-238 1269.72,-274"/>
<text text-anchor="middle" x="1227" y="-251.8" font-family="Times,serif" font-size="14.00">PingModule</text>
</g>
<!-- RmqModule&#45;&gt;PingModule -->
<g id="edge43" class="edge">
<title>RmqModule&#45;&gt;PingModule</title>
<path fill="none" stroke="black" d="M401.31,-198.49C401.31,-210.14 401.31,-223 401.31,-223 401.31,-223 1200.12,-223 1200.12,-223 1200.12,-223 1200.12,-227.96 1200.12,-227.96"/>
<polygon fill="black" stroke="black" points="1196.62,-227.96 1200.12,-237.96 1203.62,-227.96 1196.62,-227.96"/>
</g>
<!-- BroadcastModule -->
<g id="node19" class="node">
<title>BroadcastModule</title>
<polygon fill="#8dd3c7" stroke="black" points="1723.53,-274 1720.53,-278 1699.53,-278 1696.53,-274 1608.47,-274 1608.47,-238 1723.53,-238 1723.53,-274"/>
<text text-anchor="middle" x="1666" y="-251.8" font-family="Times,serif" font-size="14.00">BroadcastModule</text>
</g>
<!-- RmqModule&#45;&gt;BroadcastModule -->
<g id="edge19" class="edge">
<title>RmqModule&#45;&gt;BroadcastModule</title>
<path fill="none" stroke="black" d="M462.65,-161.95C462.65,-147.63 462.65,-130 462.65,-130 462.65,-130 1614.36,-130 1614.36,-130 1614.36,-130 1614.36,-227.95 1614.36,-227.95"/>
<polygon fill="black" stroke="black" points="1610.86,-227.95 1614.36,-237.95 1617.86,-227.95 1610.86,-227.95"/>
</g>
<!-- RmqModule&#45;&gt;BroadcastModule -->
<g id="edge20" class="edge">
<title>RmqModule&#45;&gt;BroadcastModule</title>
<path fill="none" stroke="black" d="M412.15,-198.03C412.15,-204.85 412.15,-211 412.15,-211 412.15,-211 1610.28,-211 1610.28,-211 1610.28,-211 1610.28,-227.96 1610.28,-227.96"/>
<polygon fill="black" stroke="black" points="1606.78,-227.96 1610.28,-237.96 1613.78,-227.96 1606.78,-227.96"/>
</g>
<!-- DeletionServiceModule -->
<g id="node24" class="node">
<title>DeletionServiceModule</title>
<polygon fill="#8dd3c7" stroke="black" points="2440.74,-274 2437.74,-278 2416.74,-278 2413.74,-274 2291.26,-274 2291.26,-238 2440.74,-238 2440.74,-274"/>
<text text-anchor="middle" x="2366" y="-251.8" font-family="Times,serif" font-size="14.00">DeletionServiceModule</text>
</g>
<!-- RmqModule&#45;&gt;DeletionServiceModule -->
<g id="edge27" class="edge">
<title>RmqModule&#45;&gt;DeletionServiceModule</title>
<path fill="none" stroke="black" d="M433.85,-198.12C433.85,-200.97 433.85,-203 433.85,-203 433.85,-203 2341.04,-203 2341.04,-203 2341.04,-203 2341.04,-227.76 2341.04,-227.76"/>
<polygon fill="black" stroke="black" points="2337.54,-227.76 2341.04,-237.76 2344.54,-227.76 2337.54,-227.76"/>
</g>
<!-- Neo4jModule -->
<g id="node32" class="node">
<title>Neo4jModule</title>
<polygon fill="#8dd3c7" stroke="black" points="2029.76,-274 2026.76,-278 2005.76,-278 2002.76,-274 1936.24,-274 1936.24,-238 2029.76,-238 2029.76,-274"/>
<text text-anchor="middle" x="1983" y="-251.8" font-family="Times,serif" font-size="14.00">Neo4jModule</text>
</g>
<!-- RmqModule&#45;&gt;Neo4jModule -->
<g id="edge39" class="edge">
<title>RmqModule&#45;&gt;Neo4jModule</title>
<path fill="none" stroke="black" d="M458.91,-161.72C458.91,-146.05 458.91,-126 458.91,-126 458.91,-126 1942.34,-126 1942.34,-126 1942.34,-126 1942.34,-227.92 1942.34,-227.92"/>
<polygon fill="black" stroke="black" points="1938.84,-227.92 1942.34,-237.92 1945.84,-227.92 1938.84,-227.92"/>
</g>
<!-- RmqModule&#45;&gt;Neo4jModule -->
<g id="edge40" class="edge">
<title>RmqModule&#45;&gt;Neo4jModule</title>
<path fill="none" stroke="black" d="M423,-198.21C423,-203.55 423,-208 423,-208 423,-208 1938.19,-208 1938.19,-208 1938.19,-208 1938.19,-227.85 1938.19,-227.85"/>
<polygon fill="black" stroke="black" points="1934.69,-227.85 1938.19,-237.85 1941.69,-227.85 1934.69,-227.85"/>
</g>
<!-- RMQService  -->
<g id="node35" class="node">
<title>RMQService </title>
<polygon fill="#fb8072" stroke="black" points="747.87,-274 654.13,-274 654.13,-238 747.87,-238 747.87,-274"/>
<text text-anchor="middle" x="701" y="-251.8" font-family="Times,serif" font-size="14.00">RMQService </text>
</g>
<!-- RmqModule&#45;&gt;RMQService  -->
<g id="edge46" class="edge">
<title>RmqModule&#45;&gt;RMQService </title>
<path fill="none" stroke="black" stroke-dasharray="5,2" d="M390.46,-198.03C390.46,-214.4 390.46,-236 390.46,-236 390.46,-236 678.11,-236 678.11,-236 678.11,-236 678.11,-236.18 678.11,-236.18"/>
<polygon fill="black" stroke="black" points="674.61,-227.85 678.11,-237.85 681.61,-227.85 674.61,-227.85"/>
</g>
<!-- ActivityRepository -->
<g id="node3" class="node">
<title>ActivityRepository</title>
<ellipse fill="#fdb462" stroke="black" cx="271" cy="-180" rx="85.13" ry="18"/>
<text text-anchor="middle" x="271" y="-175.8" font-family="Times,serif" font-size="14.00">ActivityRepository</text>
</g>
<!-- ActivityRepository&#45;&gt;ActivityModule -->
<g id="edge2" class="edge">
<title>ActivityRepository&#45;&gt;ActivityModule</title>
<path fill="none" stroke="black" d="M271,-198.01C271,-198.01 271,-227.85 271,-227.85"/>
<polygon fill="black" stroke="black" points="267.5,-227.85 271,-237.85 274.5,-227.85 267.5,-227.85"/>
</g>
<!-- ActivityService -->
<g id="node4" class="node">
<title>ActivityService</title>
<ellipse fill="#fdb462" stroke="black" cx="96" cy="-180" rx="71.78" ry="18"/>
<text text-anchor="middle" x="96" y="-175.8" font-family="Times,serif" font-size="14.00">ActivityService</text>
</g>
<!-- ActivityService&#45;&gt;ActivityModule -->
<g id="edge3" class="edge">
<title>ActivityService&#45;&gt;ActivityModule</title>
<path fill="none" stroke="black" d="M96,-198.01C96,-220.49 96,-256 96,-256 96,-256 208.02,-256 208.02,-256"/>
<polygon fill="black" stroke="black" points="208.02,-259.5 218.02,-256 208.02,-252.5 208.02,-259.5"/>
</g>
<!-- AuthModule -->
<g id="node5" class="node">
<title>AuthModule</title>
<polygon fill="#8dd3c7" stroke="black" points="1273.55,-198 1270.55,-202 1249.55,-202 1246.55,-198 1186.45,-198 1186.45,-162 1273.55,-162 1273.55,-198"/>
<text text-anchor="middle" x="1230" y="-175.8" font-family="Times,serif" font-size="14.00">AuthModule</text>
</g>
<!-- AppModule -->
<g id="node6" class="node">
<title>AppModule</title>
<polygon fill="#8dd3c7" stroke="black" points="1433.66,-339 1430.66,-343 1409.66,-343 1406.66,-339 1350.34,-339 1350.34,-303 1433.66,-303 1433.66,-339"/>
<text text-anchor="middle" x="1392" y="-316.8" font-family="Times,serif" font-size="14.00">AppModule</text>
</g>
<!-- AuthModule&#45;&gt;AppModule -->
<g id="edge4" class="edge">
<title>AuthModule&#45;&gt;AppModule</title>
<path fill="none" stroke="black" d="M1273.69,-186C1276.67,-186 1278.52,-186 1278.52,-186 1278.52,-186 1278.52,-309 1278.52,-309 1278.52,-309 1340.07,-309 1340.07,-309"/>
<polygon fill="black" stroke="black" points="1340.07,-312.5 1350.07,-309 1340.07,-305.5 1340.07,-312.5"/>
</g>
<!-- ChannelModule -->
<g id="node8" class="node">
<title>ChannelModule</title>
<polygon fill="#8dd3c7" stroke="black" points="1166.21,-274 1163.21,-278 1142.21,-278 1139.21,-274 1059.79,-274 1059.79,-238 1166.21,-238 1166.21,-274"/>
<text text-anchor="middle" x="1113" y="-251.8" font-family="Times,serif" font-size="14.00">ChannelModule</text>
</g>
<!-- AuthModule&#45;&gt;ChannelModule -->
<g id="edge22" class="edge">
<title>AuthModule&#45;&gt;ChannelModule</title>
<path fill="none" stroke="black" d="M1186.43,-174C1179.01,-174 1173.64,-174 1173.64,-174 1173.64,-174 1173.64,-256 1173.64,-256 1173.64,-256 1172.9,-256 1172.9,-256"/>
<polygon fill="black" stroke="black" points="1176.2,-252.5 1166.2,-256 1176.2,-259.5 1176.2,-252.5"/>
</g>
<!-- UserModule -->
<g id="node11" class="node">
<title>UserModule</title>
<polygon fill="#8dd3c7" stroke="black" points="1373.98,-274 1370.98,-278 1349.98,-278 1346.98,-274 1288.02,-274 1288.02,-238 1373.98,-238 1373.98,-274"/>
<text text-anchor="middle" x="1331" y="-251.8" font-family="Times,serif" font-size="14.00">UserModule</text>
</g>
<!-- AuthModule&#45;&gt;UserModule -->
<g id="edge48" class="edge">
<title>AuthModule&#45;&gt;UserModule</title>
<path fill="none" stroke="black" d="M1273.99,-174C1279.51,-174 1283.27,-174 1283.27,-174 1283.27,-174 1283.27,-256 1283.27,-256 1283.27,-256 1283.74,-256 1283.74,-256"/>
<polygon fill="black" stroke="black" points="1278.02,-259.5 1288.02,-256 1278.02,-252.5 1278.02,-259.5"/>
</g>
<!-- AuthModule&#45;&gt;PingModule -->
<g id="edge42" class="edge">
<title>AuthModule&#45;&gt;PingModule</title>
<path fill="none" stroke="black" d="M1241.82,-198.01C1241.82,-198.01 1241.82,-227.85 1241.82,-227.85"/>
<polygon fill="black" stroke="black" points="1238.32,-227.85 1241.82,-237.85 1245.32,-227.85 1238.32,-227.85"/>
</g>
<!-- GqlAuthGuard  -->
<g id="node14" class="node">
<title>GqlAuthGuard </title>
<polygon fill="#fb8072" stroke="black" points="1552.98,-122 1449.02,-122 1449.02,-86 1552.98,-86 1552.98,-122"/>
<text text-anchor="middle" x="1501" y="-99.8" font-family="Times,serif" font-size="14.00">GqlAuthGuard </text>
</g>
<!-- AuthModule&#45;&gt;GqlAuthGuard  -->
<g id="edge13" class="edge">
<title>AuthModule&#45;&gt;GqlAuthGuard </title>
<path fill="none" stroke="black" stroke-dasharray="5,2" d="M1230,-161.94C1230,-157.51 1230,-154 1230,-154 1230,-154 1457.52,-154 1457.52,-154 1457.52,-154 1457.52,-132.05 1457.52,-132.05"/>
<polygon fill="black" stroke="black" points="1461.02,-132.05 1457.52,-122.05 1454.02,-132.05 1461.02,-132.05"/>
</g>
<!-- FileFlowEngineModule -->
<g id="node26" class="node">
<title>FileFlowEngineModule</title>
<polygon fill="#8dd3c7" stroke="black" points="2702.77,-274 2699.77,-278 2678.77,-278 2675.77,-274 2553.23,-274 2553.23,-238 2702.77,-238 2702.77,-274"/>
<text text-anchor="middle" x="2628" y="-251.8" font-family="Times,serif" font-size="14.00">FileFlowEngineModule</text>
</g>
<!-- AuthModule&#45;&gt;FileFlowEngineModule -->
<g id="edge29" class="edge">
<title>AuthModule&#45;&gt;FileFlowEngineModule</title>
<path fill="none" stroke="black" d="M1255.71,-198.08C1255.71,-199.85 1255.71,-201 1255.71,-201 1255.71,-201 2603.04,-201 2603.04,-201 2603.04,-201 2603.04,-227.99 2603.04,-227.99"/>
<polygon fill="black" stroke="black" points="2599.54,-227.99 2603.04,-237.99 2606.54,-227.99 2599.54,-227.99"/>
</g>
<!-- AppService -->
<g id="node7" class="node">
<title>AppService</title>
<ellipse fill="#fdb462" stroke="black" cx="979" cy="-256" rx="56.74" ry="18"/>
<text text-anchor="middle" x="979" y="-251.8" font-family="Times,serif" font-size="14.00">AppService</text>
</g>
<!-- AppService&#45;&gt;AppModule -->
<g id="edge5" class="edge">
<title>AppService&#45;&gt;AppModule</title>
<path fill="none" stroke="black" d="M979,-274.09C979,-297.13 979,-334 979,-334 979,-334 1340.13,-334 1340.13,-334"/>
<polygon fill="black" stroke="black" points="1340.13,-337.5 1350.13,-334 1340.13,-330.5 1340.13,-337.5"/>
</g>
<!-- ChannelModule&#45;&gt;AppModule -->
<g id="edge6" class="edge">
<title>ChannelModule&#45;&gt;AppModule</title>
<path fill="none" stroke="black" d="M1113,-274.28C1113,-295.32 1113,-327 1113,-327 1113,-327 1340.23,-327 1340.23,-327"/>
<polygon fill="black" stroke="black" points="1340.23,-330.5 1350.23,-327 1340.23,-323.5 1340.23,-330.5"/>
</g>
<!-- MessageModule -->
<g id="node9" class="node">
<title>MessageModule</title>
<polygon fill="#8dd3c7" stroke="black" points="1168.03,-198 1165.03,-202 1144.03,-202 1141.03,-198 1059.97,-198 1059.97,-162 1168.03,-162 1168.03,-198"/>
<text text-anchor="middle" x="1114" y="-175.8" font-family="Times,serif" font-size="14.00">MessageModule</text>
</g>
<!-- MessageModule&#45;&gt;AppModule -->
<g id="edge7" class="edge">
<title>MessageModule&#45;&gt;AppModule</title>
<path fill="none" stroke="black" d="M1168.28,-186C1174.69,-186 1179.01,-186 1179.01,-186 1179.01,-186 1179.01,-321 1179.01,-321 1179.01,-321 1340.17,-321 1340.17,-321"/>
<polygon fill="black" stroke="black" points="1340.17,-324.5 1350.17,-321 1340.17,-317.5 1340.17,-324.5"/>
</g>
<!-- MessageModule&#45;&gt;ChannelModule -->
<g id="edge23" class="edge">
<title>MessageModule&#45;&gt;ChannelModule</title>
<path fill="none" stroke="black" d="M1130.7,-198.01C1130.7,-198.01 1130.7,-227.85 1130.7,-227.85"/>
<polygon fill="black" stroke="black" points="1127.2,-227.85 1130.7,-237.85 1134.2,-227.85 1127.2,-227.85"/>
</g>
<!-- MessageService  -->
<g id="node30" class="node">
<title>MessageService </title>
<polygon fill="#fb8072" stroke="black" points="1576.46,-274 1465.54,-274 1465.54,-238 1576.46,-238 1576.46,-274"/>
<text text-anchor="middle" x="1521" y="-251.8" font-family="Times,serif" font-size="14.00">MessageService </text>
</g>
<!-- MessageModule&#45;&gt;MessageService  -->
<g id="edge34" class="edge">
<title>MessageModule&#45;&gt;MessageService </title>
<path fill="none" stroke="black" stroke-dasharray="5,2" d="M1148.4,-198.04C1148.4,-205.75 1148.4,-213 1148.4,-213 1148.4,-213 1509.26,-213 1509.26,-213 1509.26,-213 1509.26,-227.51 1509.26,-227.51"/>
<polygon fill="black" stroke="black" points="1505.76,-227.51 1509.26,-237.51 1512.76,-227.51 1505.76,-227.51"/>
</g>
<!-- HealthModule -->
<g id="node10" class="node">
<title>HealthModule</title>
<polygon fill="#8dd3c7" stroke="black" points="1388.37,-198 1385.37,-202 1364.37,-202 1361.37,-198 1291.63,-198 1291.63,-162 1388.37,-162 1388.37,-198"/>
<text text-anchor="middle" x="1340" y="-175.8" font-family="Times,serif" font-size="14.00">HealthModule</text>
</g>
<!-- HealthModule&#45;&gt;AppModule -->
<g id="edge8" class="edge">
<title>HealthModule&#45;&gt;AppModule</title>
<path fill="none" stroke="black" d="M1381.21,-198.14C1381.21,-198.14 1381.21,-292.93 1381.21,-292.93"/>
<polygon fill="black" stroke="black" points="1377.71,-292.92 1381.21,-302.93 1384.71,-292.93 1377.71,-292.92"/>
</g>
<!-- HealthModule&#45;&gt;AppModule -->
<g id="edge10" class="edge">
<title>HealthModule&#45;&gt;AppModule</title>
<path fill="none" stroke="black" d="M1384.82,-198.14C1384.82,-198.14 1384.82,-292.93 1384.82,-292.93"/>
<polygon fill="black" stroke="black" points="1381.32,-292.92 1384.82,-302.93 1388.32,-292.93 1381.32,-292.92"/>
</g>
<!-- HealthModule&#45;&gt;BroadcastModule -->
<g id="edge18" class="edge">
<title>HealthModule&#45;&gt;BroadcastModule</title>
<path fill="none" stroke="black" d="M1388.37,-186C1466.62,-186 1612.32,-186 1612.32,-186 1612.32,-186 1612.32,-227.97 1612.32,-227.97"/>
<polygon fill="black" stroke="black" points="1608.82,-227.97 1612.32,-237.97 1615.82,-227.97 1608.82,-227.97"/>
</g>
<!-- HealthModule&#45;&gt;Neo4jModule -->
<g id="edge37" class="edge">
<title>HealthModule&#45;&gt;Neo4jModule</title>
<path fill="none" stroke="black" d="M1377.6,-198.06C1377.6,-202.49 1377.6,-206 1377.6,-206 1377.6,-206 1940.26,-206 1940.26,-206 1940.26,-206 1940.26,-227.95 1940.26,-227.95"/>
<polygon fill="black" stroke="black" points="1936.76,-227.95 1940.26,-237.95 1943.76,-227.95 1936.76,-227.95"/>
</g>
<!-- UserModule&#45;&gt;AppModule -->
<g id="edge9" class="edge">
<title>UserModule&#45;&gt;AppModule</title>
<path fill="none" stroke="black" d="M1362.08,-274.11C1362.08,-274.11 1362.08,-292.99 1362.08,-292.99"/>
<polygon fill="black" stroke="black" points="1358.58,-292.99 1362.08,-302.99 1365.58,-292.99 1358.58,-292.99"/>
</g>
<!-- PingModule&#45;&gt;AppModule -->
<g id="edge11" class="edge">
<title>PingModule&#45;&gt;AppModule</title>
<path fill="none" stroke="black" d="M1227,-274.02C1227,-291.37 1227,-315 1227,-315 1227,-315 1339.94,-315 1339.94,-315"/>
<polygon fill="black" stroke="black" points="1339.94,-318.5 1349.94,-315 1339.94,-311.5 1339.94,-318.5"/>
</g>
<!-- PrismaModule -->
<g id="node13" class="node">
<title>PrismaModule</title>
<polygon fill="#8dd3c7" stroke="black" points="1675.43,-122 1672.43,-126 1651.43,-126 1648.43,-122 1576.57,-122 1576.57,-86 1675.43,-86 1675.43,-122"/>
<text text-anchor="middle" x="1626" y="-99.8" font-family="Times,serif" font-size="14.00">PrismaModule</text>
</g>
<!-- PrismaModule&#45;&gt;AuthModule -->
<g id="edge12" class="edge">
<title>PrismaModule&#45;&gt;AuthModule</title>
<path fill="none" stroke="black" d="M1584.65,-122.28C1584.65,-137.95 1584.65,-158 1584.65,-158 1584.65,-158 1259.18,-158 1259.18,-158 1259.18,-158 1259.18,-158.38 1259.18,-158.38"/>
<polygon fill="black" stroke="black" points="1255.68,-151.83 1259.18,-161.83 1262.68,-151.83 1255.68,-151.83"/>
</g>
<!-- PrismaModule&#45;&gt;HealthModule -->
<g id="edge32" class="edge">
<title>PrismaModule&#45;&gt;HealthModule</title>
<path fill="none" stroke="black" d="M1592.51,-122.03C1592.51,-142.77 1592.51,-174 1592.51,-174 1592.51,-174 1398.39,-174 1398.39,-174"/>
<polygon fill="black" stroke="black" points="1398.39,-170.5 1388.39,-174 1398.39,-177.5 1398.39,-170.5"/>
</g>
<!-- PrismaModule&#45;&gt;UserModule -->
<g id="edge49" class="edge">
<title>PrismaModule&#45;&gt;UserModule</title>
<path fill="none" stroke="black" d="M1600.37,-122.21C1600.37,-157.77 1600.37,-233 1600.37,-233 1600.37,-233 1346.51,-233 1346.51,-233 1346.51,-233 1346.51,-233.49 1346.51,-233.49"/>
<polygon fill="black" stroke="black" points="1343.01,-227.88 1346.51,-237.88 1350.01,-227.88 1343.01,-227.88"/>
</g>
<!-- AuthService -->
<g id="node15" class="node">
<title>AuthService</title>
<ellipse fill="#fdb462" stroke="black" cx="1366" cy="-104" rx="59.11" ry="18"/>
<text text-anchor="middle" x="1366" y="-99.8" font-family="Times,serif" font-size="14.00">AuthService</text>
</g>
<!-- AuthService&#45;&gt;AuthModule -->
<g id="edge14" class="edge">
<title>AuthService&#45;&gt;AuthModule</title>
<path fill="none" stroke="black" d="M1347.56,-121.13C1347.56,-134.21 1347.56,-150 1347.56,-150 1347.56,-150 1244.59,-150 1244.59,-150 1244.59,-150 1244.59,-151.86 1244.59,-151.86"/>
<polygon fill="black" stroke="black" points="1241.09,-151.86 1244.59,-161.86 1248.09,-151.86 1241.09,-151.86"/>
</g>
<!-- GqlAuthGuard -->
<g id="node16" class="node">
<title>GqlAuthGuard</title>
<ellipse fill="#fdb462" stroke="black" cx="1220" cy="-104" rx="68.92" ry="18"/>
<text text-anchor="middle" x="1220" y="-99.8" font-family="Times,serif" font-size="14.00">GqlAuthGuard</text>
</g>
<!-- GqlAuthGuard&#45;&gt;AuthModule -->
<g id="edge15" class="edge">
<title>GqlAuthGuard&#45;&gt;AuthModule</title>
<path fill="none" stroke="black" d="M1215.41,-122.01C1215.41,-122.01 1215.41,-151.85 1215.41,-151.85"/>
<polygon fill="black" stroke="black" points="1211.91,-151.85 1215.41,-161.85 1218.91,-151.85 1211.91,-151.85"/>
</g>
<!-- JwtStrategy -->
<g id="node17" class="node">
<title>JwtStrategy</title>
<ellipse fill="#fdb462" stroke="black" cx="1076" cy="-104" rx="56.76" ry="18"/>
<text text-anchor="middle" x="1076" y="-99.8" font-family="Times,serif" font-size="14.00">JwtStrategy</text>
</g>
<!-- JwtStrategy&#45;&gt;AuthModule -->
<g id="edge16" class="edge">
<title>JwtStrategy&#45;&gt;AuthModule</title>
<path fill="none" stroke="black" d="M1114.41,-117.44C1114.41,-126.94 1114.41,-138 1114.41,-138 1114.41,-138 1200.82,-138 1200.82,-138 1200.82,-138 1200.82,-151.94 1200.82,-151.94"/>
<polygon fill="black" stroke="black" points="1197.32,-151.94 1200.82,-161.94 1204.32,-151.94 1197.32,-151.94"/>
</g>
<!-- FirebaseModule -->
<g id="node18" class="node">
<title>FirebaseModule</title>
<polygon fill="#8dd3c7" stroke="black" points="1904.47,-198 1901.47,-202 1880.47,-202 1877.47,-198 1797.53,-198 1797.53,-162 1904.47,-162 1904.47,-198"/>
<text text-anchor="middle" x="1851" y="-175.8" font-family="Times,serif" font-size="14.00">FirebaseModule</text>
</g>
<!-- FirebaseModule&#45;&gt;BroadcastModule -->
<g id="edge17" class="edge">
<title>FirebaseModule&#45;&gt;BroadcastModule</title>
<path fill="none" stroke="black" d="M1851,-198.01C1851,-220.49 1851,-256 1851,-256 1851,-256 1733.77,-256 1733.77,-256"/>
<polygon fill="black" stroke="black" points="1733.77,-252.5 1723.77,-256 1733.77,-259.5 1733.77,-252.5"/>
</g>
<!-- BroadcastService -->
<g id="node20" class="node">
<title>BroadcastService</title>
<ellipse fill="#fdb462" stroke="black" cx="1695" cy="-180" rx="78.71" ry="18"/>
<text text-anchor="middle" x="1695" y="-175.8" font-family="Times,serif" font-size="14.00">BroadcastService</text>
</g>
<!-- BroadcastService&#45;&gt;BroadcastModule -->
<g id="edge21" class="edge">
<title>BroadcastService&#45;&gt;BroadcastModule</title>
<path fill="none" stroke="black" d="M1670.08,-197.25C1670.08,-197.25 1670.08,-227.76 1670.08,-227.76"/>
<polygon fill="black" stroke="black" points="1666.58,-227.76 1670.08,-237.76 1673.58,-227.76 1666.58,-227.76"/>
</g>
<!-- ChannelService -->
<g id="node21" class="node">
<title>ChannelService</title>
<ellipse fill="#fdb462" stroke="black" cx="383" cy="-104" rx="72.35" ry="18"/>
<text text-anchor="middle" x="383" y="-99.8" font-family="Times,serif" font-size="14.00">ChannelService</text>
</g>
<!-- ChannelService&#45;&gt;ChannelModule -->
<g id="edge24" class="edge">
<title>ChannelService&#45;&gt;ChannelModule</title>
<path fill="none" stroke="black" d="M367.84,-121.66C367.84,-156.55 367.84,-231 367.84,-231 367.84,-231 1077.6,-231 1077.6,-231 1077.6,-231 1077.6,-231.68 1077.6,-231.68"/>
<polygon fill="black" stroke="black" points="1074.1,-227.83 1077.6,-237.83 1081.1,-227.83 1074.1,-227.83"/>
</g>
<!-- ForumRepository -->
<g id="node22" class="node">
<title>ForumRepository</title>
<ellipse fill="#fdb462" stroke="black" cx="718" cy="-104" rx="79.33" ry="18"/>
<text text-anchor="middle" x="718" y="-99.8" font-family="Times,serif" font-size="14.00">ForumRepository</text>
</g>
<!-- ForumRepository&#45;&gt;ChannelModule -->
<g id="edge25" class="edge">
<title>ForumRepository&#45;&gt;ChannelModule</title>
<path fill="none" stroke="black" d="M756.73,-119.95C756.73,-153.02 756.73,-226 756.73,-226 756.73,-226 1113,-226 1113,-226 1113,-226 1113,-227.86 1113,-227.86"/>
<polygon fill="black" stroke="black" points="1109.5,-227.86 1113,-237.86 1116.5,-227.86 1109.5,-227.86"/>
</g>
<!-- ForumRepository&#45;&gt;MessageModule -->
<g id="edge35" class="edge">
<title>ForumRepository&#45;&gt;MessageModule</title>
<path fill="none" stroke="black" d="M781.47,-114.79C781.47,-126.02 781.47,-142 781.47,-142 781.47,-142 1096.18,-142 1096.18,-142 1096.18,-142 1096.18,-151.89 1096.18,-151.89"/>
<polygon fill="black" stroke="black" points="1092.68,-151.89 1096.18,-161.89 1099.68,-151.89 1092.68,-151.89"/>
</g>
<!-- MessageService -->
<g id="node23" class="node">
<title>MessageService</title>
<ellipse fill="#fdb462" stroke="black" cx="547" cy="-104" rx="73.55" ry="18"/>
<text text-anchor="middle" x="547" y="-99.8" font-family="Times,serif" font-size="14.00">MessageService</text>
</g>
<!-- MessageService&#45;&gt;ChannelModule -->
<g id="edge26" class="edge">
<title>MessageService&#45;&gt;ChannelModule</title>
<path fill="none" stroke="black" d="M558.16,-122.03C558.16,-156.42 558.16,-228 558.16,-228 558.16,-228 1095.3,-228 1095.3,-228 1095.3,-228 1095.3,-228.98 1095.3,-228.98"/>
<polygon fill="black" stroke="black" points="1091.8,-227.79 1095.3,-237.79 1098.8,-227.79 1091.8,-227.79"/>
</g>
<!-- MessageService&#45;&gt;MessageModule -->
<g id="edge36" class="edge">
<title>MessageService&#45;&gt;MessageModule</title>
<path fill="none" stroke="black" d="M615.54,-110.94C615.54,-122.86 615.54,-146 615.54,-146 615.54,-146 1077.96,-146 1077.96,-146 1077.96,-146 1077.96,-151.81 1077.96,-151.81"/>
<polygon fill="black" stroke="black" points="1074.46,-151.81 1077.96,-161.81 1081.46,-151.81 1074.46,-151.81"/>
</g>
<!-- DeletionServiceService -->
<g id="node25" class="node">
<title>DeletionServiceService</title>
<ellipse fill="#fdb462" stroke="black" cx="2384" cy="-180" rx="102.4" ry="18"/>
<text text-anchor="middle" x="2384" y="-175.8" font-family="Times,serif" font-size="14.00">DeletionServiceService</text>
</g>
<!-- DeletionServiceService&#45;&gt;DeletionServiceModule -->
<g id="edge28" class="edge">
<title>DeletionServiceService&#45;&gt;DeletionServiceModule</title>
<path fill="none" stroke="black" d="M2390.96,-198.01C2390.96,-198.01 2390.96,-227.85 2390.96,-227.85"/>
<polygon fill="black" stroke="black" points="2387.46,-227.85 2390.96,-237.85 2394.46,-227.85 2387.46,-227.85"/>
</g>
<!-- AWSService -->
<g id="node27" class="node">
<title>AWSService</title>
<ellipse fill="#fdb462" stroke="black" cx="2810" cy="-180" rx="61.39" ry="18"/>
<text text-anchor="middle" x="2810" y="-175.8" font-family="Times,serif" font-size="14.00">AWSService</text>
</g>
<!-- AWSService&#45;&gt;FileFlowEngineModule -->
<g id="edge30" class="edge">
<title>AWSService&#45;&gt;FileFlowEngineModule</title>
<path fill="none" stroke="black" d="M2810,-198.01C2810,-220.49 2810,-256 2810,-256 2810,-256 2712.81,-256 2712.81,-256"/>
<polygon fill="black" stroke="black" points="2712.81,-252.5 2702.81,-256 2712.81,-259.5 2712.81,-252.5"/>
</g>
<!-- FileFlowEngineService -->
<g id="node28" class="node">
<title>FileFlowEngineService</title>
<ellipse fill="#fdb462" stroke="black" cx="2628" cy="-180" rx="102.44" ry="18"/>
<text text-anchor="middle" x="2628" y="-175.8" font-family="Times,serif" font-size="14.00">FileFlowEngineService</text>
</g>
<!-- FileFlowEngineService&#45;&gt;FileFlowEngineModule -->
<g id="edge31" class="edge">
<title>FileFlowEngineService&#45;&gt;FileFlowEngineModule</title>
<path fill="none" stroke="black" d="M2652.96,-197.63C2652.96,-197.63 2652.96,-227.94 2652.96,-227.94"/>
<polygon fill="black" stroke="black" points="2649.46,-227.94 2652.96,-237.94 2656.46,-227.94 2649.46,-227.94"/>
</g>
<!-- PingRepository -->
<g id="node29" class="node">
<title>PingRepository</title>
<ellipse fill="#fdb462" stroke="black" cx="908" cy="-104" rx="71.25" ry="18"/>
<text text-anchor="middle" x="908" y="-99.8" font-family="Times,serif" font-size="14.00">PingRepository</text>
</g>
<!-- PingRepository&#45;&gt;HealthModule -->
<g id="edge33" class="edge">
<title>PingRepository&#45;&gt;HealthModule</title>
<path fill="none" stroke="black" d="M941.29,-120.05C941.29,-127.19 941.29,-134 941.29,-134 941.29,-134 1299.13,-134 1299.13,-134 1299.13,-134 1299.13,-151.82 1299.13,-151.82"/>
<polygon fill="black" stroke="black" points="1295.63,-151.82 1299.13,-161.82 1302.63,-151.82 1295.63,-151.82"/>
</g>
<!-- PingRepository&#45;&gt;PingModule -->
<g id="edge44" class="edge">
<title>PingRepository&#45;&gt;PingModule</title>
<path fill="none" stroke="black" d="M960.21,-116.64C960.21,-146.32 960.21,-218 960.21,-218 960.21,-218 1227.92,-218 1227.92,-218 1227.92,-218 1227.92,-227.89 1227.92,-227.89"/>
<polygon fill="black" stroke="black" points="1224.42,-227.89 1227.92,-237.89 1231.42,-227.89 1224.42,-227.89"/>
</g>
<!-- Neo4jCommonModule -->
<g id="node31" class="node">
<title>Neo4jCommonModule</title>
<polygon fill="#8dd3c7" stroke="black" points="2241.88,-198 2238.88,-202 2217.88,-202 2214.88,-198 2096.12,-198 2096.12,-162 2241.88,-162 2241.88,-198"/>
<text text-anchor="middle" x="2169" y="-175.8" font-family="Times,serif" font-size="14.00">Neo4jCommonModule</text>
</g>
<!-- Neo4jCommonModule&#45;&gt;Neo4jModule -->
<g id="edge38" class="edge">
<title>Neo4jCommonModule&#45;&gt;Neo4jModule</title>
<path fill="none" stroke="black" d="M2169,-198.01C2169,-220.49 2169,-256 2169,-256 2169,-256 2039.94,-256 2039.94,-256"/>
<polygon fill="black" stroke="black" points="2039.94,-252.5 2029.94,-256 2039.94,-259.5 2039.94,-252.5"/>
</g>
<!-- Neo4jService -->
<g id="node33" class="node">
<title>Neo4jService</title>
<ellipse fill="#fdb462" stroke="black" cx="2008" cy="-180" rx="63.68" ry="18"/>
<text text-anchor="middle" x="2008" y="-175.8" font-family="Times,serif" font-size="14.00">Neo4jService</text>
</g>
<!-- Neo4jService&#45;&gt;Neo4jModule -->
<g id="edge41" class="edge">
<title>Neo4jService&#45;&gt;Neo4jModule</title>
<path fill="none" stroke="black" d="M1987.15,-197.25C1987.15,-197.25 1987.15,-227.76 1987.15,-227.76"/>
<polygon fill="black" stroke="black" points="1983.65,-227.76 1987.15,-237.76 1990.65,-227.76 1983.65,-227.76"/>
</g>
<!-- PingService -->
<g id="node34" class="node">
<title>PingService</title>
<ellipse fill="#fdb462" stroke="black" cx="668" cy="-180" rx="57.9" ry="18"/>
<text text-anchor="middle" x="668" y="-175.8" font-family="Times,serif" font-size="14.00">PingService</text>
</g>
<!-- PingService&#45;&gt;PingModule -->
<g id="edge45" class="edge">
<title>PingService&#45;&gt;PingModule</title>
<path fill="none" stroke="black" d="M701.91,-194.8C701.91,-206.55 701.91,-221 701.91,-221 701.91,-221 1214.02,-221 1214.02,-221 1214.02,-221 1214.02,-227.68 1214.02,-227.68"/>
<polygon fill="black" stroke="black" points="1210.52,-227.68 1214.02,-237.68 1217.52,-227.68 1210.52,-227.68"/>
</g>
<!-- RMQService -->
<g id="node36" class="node">
<title>RMQService</title>
<ellipse fill="#fdb462" stroke="black" cx="568" cy="-256" rx="61.98" ry="18"/>
<text text-anchor="middle" x="568" y="-251.8" font-family="Times,serif" font-size="14.00">RMQService</text>
</g>
<!-- RMQService&#45;&gt;RmqModule -->
<g id="edge47" class="edge">
<title>RMQService&#45;&gt;RmqModule</title>
<path fill="none" stroke="black" d="M509.46,-262C482.14,-262 455.54,-262 455.54,-262 455.54,-262 455.54,-208.2 455.54,-208.2"/>
<polygon fill="black" stroke="black" points="459.04,-208.2 455.54,-198.2 452.04,-208.2 459.04,-208.2"/>
</g>
<!-- UserService -->
<g id="node37" class="node">
<title>UserService</title>
<ellipse fill="#fdb462" stroke="black" cx="824" cy="-180" rx="58.44" ry="18"/>
<text text-anchor="middle" x="824" y="-175.8" font-family="Times,serif" font-size="14.00">UserService</text>
</g>
<!-- UserService&#45;&gt;UserModule -->
<g id="edge50" class="edge">
<title>UserService&#45;&gt;UserModule</title>
<path fill="none" stroke="black" d="M824,-198C824,-207 824,-216 824,-216 824,-216 1319.04,-216 1319.04,-216 1319.04,-216 1319.04,-227.87 1319.04,-227.87"/>
<polygon fill="black" stroke="black" points="1315.54,-227.87 1319.04,-237.87 1322.54,-227.87 1315.54,-227.87"/>
</g>
</g>
</svg>
